<?xml version="1.0" encoding="utf-8"?>
<!-- Generator: Adobe Illustrator 23.0.0, SVG Export Plug-In . SVG Version: 6.00 Build 0)  -->
<svg version="1.1"
	 id="svg2" xmlns:svg="http://www.w3.org/2000/svg"
	 xmlns="http://www.w3.org/2000/svg"  viewBox="0 0 500 150" >
<style type="text/css">
	.st0{fill-rule:evenodd;clip-rule:evenodd;fill:#C1F6FF;}
</style>
<g id="Ebene_x0020_1" transform="matrix(7.01574,0,0,7.01574,-25797.01,-10282.12)">
	<g id="g9">
		<g id="g11">
			<path id="path13" class="st0" d="M3706.5,1478.6c0,0-1.6-0.7-2-0.8c-3.6-1-8.5,0.8-11.8,1.3c-0.8,0.1-1.7,0.2-2.6,0.3
				c-0.5,0-1,0.1-1.6,0c-1.4-0.2-3.1-0.3-4.6-0.8c-1-0.4-2.1-0.9-2.9-1.6c-0.4-0.4-0.5-0.5-0.4-0.7c0.1-0.5,0.9-0.3,1.2,0.1
				c0.4,0.5,0.3,0.6,0.8,1.1c0.3,0.3,0.7,0.5,1.7,0.9c0.7,0.3,1.7,0.3,2.4,0.3c1.2,0,2.8-0.2,3.9-0.4c0.4-0.1,0.4-0.2,6.5-1.1
				c2-0.3,4.1-0.7,6.3-0.2c0.3,0,2.7,1,3,1.4C3706.9,1478.6,3706.5,1478.6,3706.5,1478.6L3706.5,1478.6z"/>
			<path id="path15" class="st0" d="M3706.6,1478.6c0.3,0,0.1-0.2,0-0.3c-1.2-1.2-1.6-2.9-1.4-4.2c0.7-1.4,1.5-2,3-2.4
				c2.6-0.3,4.1,0.1,6.5,1.5c2.2,1.7,3.1,3.4,2.3,5c-1,1.4-3.5,1.1-5.8-0.3c-0.1,0-0.2-0.1-0.2,0c0,0.1,0,0.3,0.1,0.3
				c0.4,0.3,1.3,1,2.5,1.4c1.5,0.5,3,0.5,4.1-0.4c0.7-0.9,1-1.6,0.6-2.9c-0.6-1.3-1.7-2.6-3-3.6c-1.7-1-2.6-1.5-4.5-1.9
				c-2.5-0.3-4.3-0.3-5.9,1.2c-1.1,1.2-1.5,1.9,0.2,5.3C3705.6,1477.9,3706.4,1478.6,3706.6,1478.6L3706.6,1478.6z"/>
		</g>
		<g id="g17">
			<path id="path19" class="st0" d="M3719.1,1474.7c0,0,1.6,0.7,2,0.8c3.6,1,8.5-0.8,11.8-1.3c0.8-0.1,1.7-0.2,2.6-0.3
				c0.5,0,1-0.1,1.6,0c1.4,0.2,3.1,0.3,4.6,0.8c1,0.4,2.1,0.9,2.9,1.6c0.4,0.4,0.5,0.5,0.4,0.7c-0.1,0.5-0.9,0.3-1.2-0.1
				c-0.4-0.5-0.3-0.6-0.8-1.1c-0.3-0.3-0.7-0.5-1.7-0.9c-0.7-0.3-1.7-0.3-2.4-0.3c-1.2,0-2.8,0.2-3.9,0.4c-0.4,0.1-0.4,0.2-6.5,1.1
				c-2,0.3-4.1,0.7-6.3,0.2c-0.3,0-2.7-1-3-1.4C3718.8,1474.6,3719.1,1474.7,3719.1,1474.7L3719.1,1474.7z"/>
			<path id="path21" class="st0" d="M3719,1474.6c-0.3,0-0.1,0.2,0,0.3c1.2,1.2,1.6,2.9,1.4,4.2c-0.7,1.4-1.5,2-3,2.4
				c-2.6,0.3-4.1-0.1-6.5-1.5c-2.2-1.7-3.1-3.4-2.3-5c1-1.4,3.5-1.1,5.8,0.3c0.1,0,0.2,0.1,0.2,0c0-0.1,0-0.3-0.1-0.3
				c-0.4-0.3-1.3-1-2.5-1.4c-1.5-0.5-3-0.5-4.1,0.4c-0.7,0.9-1,1.6-0.6,2.9c0.6,1.3,1.7,2.6,3,3.6c1.7,1,2.6,1.5,4.5,1.9
				c2.5,0.3,4.3,0.3,5.9-1.2c1.1-1.2,1.5-1.9-0.2-5.3C3720.1,1475.3,3719.3,1474.6,3719,1474.6L3719,1474.6z"/>
		</g>
	</g>
</g>
</svg>
